<svg width="107" height="68" viewBox="0 0 107 68" fill="none" xmlns="http://www.w3.org/2000/svg">
<path d="M60.8165 33.2252C60.8681 28.9857 62.2908 24.9778 64.834 21.2912C65.6669 20.081 66.3267 18.6019 66.5921 17.1563C68.3391 7.65771 76.094 0.530944 85.4079 0.0304268C94.9577 -0.485031 103.461 5.59214 106.096 14.96C107.814 21.0596 106.859 26.8156 103.343 32.0561C102.573 33.2028 102.488 33.9423 103.291 35.1227C108.068 42.1374 108.086 51.1317 103.45 58.1203C98.7688 65.1761 90.4795 68.549 82.2123 66.7598C74.3027 65.0491 68.0627 58.4415 66.6805 50.1718C66.4078 48.532 65.8807 47.1649 64.8524 45.8315C62.077 42.2345 60.8054 38.0585 60.8165 33.2252ZM97.6668 33.5763C97.6446 24.2794 90.1589 16.7791 80.9444 16.8276C71.8738 16.8725 64.4764 24.4587 64.5096 33.6809C64.5428 42.918 71.9475 50.4183 81.0513 50.4295C90.2399 50.4445 97.6889 42.8919 97.6668 33.5763ZM70.9855 15.7332C77.0596 12.6181 83.0453 12.1325 89.1268 14.7957C95.1862 17.4477 98.8831 22.2511 100.873 28.6383C104.08 24.2271 103.899 16.809 100.615 11.561C97.0365 5.83867 90.1736 2.75339 83.8083 3.99721C77.4688 5.2373 72.0175 10.1005 70.9855 15.7332ZM70.9376 51.5239C72.2424 57.5227 77.8668 62.3523 84.3833 63.372C90.6896 64.3618 97.4714 61.0188 100.844 55.3525C104.003 50.0448 103.877 42.6341 100.822 38.6188C98.9089 45.0732 95.1346 49.8169 89.0826 52.4764C83.0085 55.1471 77.0191 54.6017 70.9376 51.5239Z" fill="white" fill-opacity="0.2"/>
<path d="M3.75375 28.1828C3.75375 31.8022 3.75375 35.459 3.75375 39.2278C4.3877 39.3772 4.98111 39.5042 5.56715 39.6611C12.1389 41.4391 16.3554 45.6449 17.9697 52.3458C18.3125 53.7727 18.788 54.2097 20.2476 54.206C33.8812 54.1425 47.5185 54.1612 61.1522 54.1649C63.5443 54.1649 64.6168 54.7737 64.4473 56.1184C64.1929 58.1653 62.5823 57.9038 61.1817 57.9038C41.9567 57.9113 22.7354 57.915 3.51049 57.915C0.285442 57.915 0.00163812 57.6349 0.00163812 54.445C0.00163812 40.4418 -0.00204765 26.4347 0.00163812 12.4315C0.00163812 9.80936 0.425501 9.35366 2.96131 9.35366C22.5548 9.34619 42.1447 9.35366 61.7382 9.34619C63.0688 9.34619 64.3846 9.49933 64.4251 11.1466C64.4694 12.9283 63.0946 13.0963 61.6977 13.0963C48.064 13.0889 34.4267 13.1262 20.793 13.0552C19.0681 13.0478 18.342 13.3839 17.8665 15.274C16.2227 21.7882 11.9914 25.8782 5.55977 27.5964C5.08431 27.7234 4.60516 27.8205 4.1297 27.9475C4.01912 27.9774 3.92698 28.0745 3.75375 28.1828ZM3.76849 23.921C9.12022 23.5736 14.3208 18.2472 14.3356 13.242C10.823 13.242 7.3142 13.242 3.76849 13.242C3.76849 16.8726 3.76849 20.3426 3.76849 23.921ZM14.3208 54.0715C14.3909 49.029 8.67425 43.2544 3.79798 43.4224C3.79798 46.9373 3.79798 50.4484 3.79798 54.0715C7.38423 54.0715 10.8525 54.0715 14.3208 54.0715Z" fill="white" fill-opacity="0.2"/>
<path d="M51.6097 33.6698C51.5286 37.491 50.3602 40.8788 47.6475 43.613C43.5969 47.6918 37.7254 47.7404 33.59 43.7624C28.4225 38.7945 28.0834 29.632 32.8676 24.2496C37.6701 18.8485 45.1928 19.4386 49.225 25.5569C50.832 27.9998 51.6318 30.7115 51.6097 33.6698ZM48.5026 33.6773C47.548 31.3465 46.9915 28.9896 45.7309 27.1257C43.114 23.2486 38.0756 23.3755 35.267 27.1257C32.4511 30.8833 32.4621 36.4526 35.3002 40.1766C38.1345 43.9043 43.1509 43.9828 45.7678 40.0944C46.9914 38.2716 47.548 35.9819 48.5026 33.6773Z" fill="white" fill-opacity="0.2"/>
<path d="M79.146 24.1599C79.3818 22.7294 78.84 20.7124 80.9815 20.6339C83.2556 20.5517 82.7912 22.6584 83.1045 24.2981C84.2212 24.2981 85.3122 24.272 86.3995 24.3056C87.6158 24.3392 88.5962 24.9966 88.3345 26.2143C88.1834 26.9203 87.144 27.8578 86.4253 27.9325C84.236 28.1603 82.0135 28.0408 79.802 28.0221C78.5452 28.0109 77.5021 28.4181 77.4652 29.8076C77.4247 31.2979 78.4862 31.7872 79.8278 31.7648C80.7493 31.7499 81.6707 31.7349 82.5921 31.7573C85.725 31.8283 88.0286 33.7669 88.4119 36.6392C88.7916 39.4892 87.0335 41.988 84.0222 42.8658C83.731 42.9517 83.4362 43.0115 83.0934 43.0974C82.7285 44.4831 83.344 46.657 81.0515 46.6271C78.8916 46.601 79.3597 44.6139 79.1165 42.9666C78.0918 42.9666 77.0709 42.9592 76.0499 42.9666C74.782 42.9778 73.7942 42.4997 73.7758 41.1065C73.7574 39.7058 74.7267 39.2202 76.0094 39.2277C78.0955 39.2389 80.1853 39.209 82.2715 39.2352C83.5983 39.2539 84.7004 38.8654 84.7004 37.3526C84.7004 35.8212 83.5689 35.4701 82.2567 35.5C81.3353 35.5224 80.4139 35.5075 79.4924 35.4888C76.4074 35.4178 74.067 33.3896 73.7537 30.5285C73.4404 27.6748 75.1432 25.2581 78.055 24.4214C78.3977 24.3243 78.7516 24.2571 79.146 24.1599Z" fill="white" fill-opacity="0.2"/>
<path d="M16.06 66.9167H2.94978C1.50127 66.9167 0.314453 65.714 0.314453 64.2461C0.314453 62.7782 1.50127 61.5754 2.94978 61.5754H16.06C17.5086 61.5754 18.6954 62.7782 18.6954 64.2461C18.6954 65.714 17.5086 66.9167 16.06 66.9167Z" fill="white" fill-opacity="0.2"/>
<path d="M24.5589 66.9133C25.9268 66.9133 27.0357 65.7895 27.0357 64.4032C27.0357 63.0169 25.9268 61.8931 24.5589 61.8931C23.1909 61.8931 22.082 63.0169 22.082 64.4032C22.082 65.7895 23.1909 66.9133 24.5589 66.9133Z" fill="white" fill-opacity="0.2"/>
<path d="M48.2447 0.3479H61.355C62.8035 0.3479 63.9903 1.55063 63.9903 3.01855C63.9903 4.48648 62.8035 5.68921 61.355 5.68921H48.2447C46.7962 5.68921 45.6094 4.48648 45.6094 3.01855C45.6094 1.55063 46.7962 0.3479 48.2447 0.3479Z" fill="white" fill-opacity="0.2"/>
<path d="M39.7444 5.37183C41.1123 5.37183 42.2213 4.248 42.2213 2.86169C42.2213 1.47539 41.1123 0.351562 39.7444 0.351562C38.3765 0.351562 37.2676 1.47539 37.2676 2.86169C37.2676 4.248 38.3765 5.37183 39.7444 5.37183Z" fill="white" fill-opacity="0.2"/>
</svg>
