<svg width="95" height="96" viewBox="0 0 95 96" fill="none" xmlns="http://www.w3.org/2000/svg">
<path d="M0.000782944 47.6156C0.000782944 34.6602 -0.00234883 21.7016 0.00391472 8.74618C0.0070465 3.2206 3.20146 0.00555413 8.67581 0.00238034C23.8086 -0.000793448 38.9444 -0.000793448 54.0772 0.00238034C59.4263 0.00555413 62.6207 3.23965 62.6363 8.69857C62.6583 16.3664 62.6457 24.0343 62.6457 31.7022C62.6457 31.8609 62.6395 32.0196 62.6426 32.1783C62.6645 33.2764 62.2449 34.1206 61.083 34.1333C59.9148 34.146 59.5014 33.3145 59.5046 32.21C59.5108 29.5123 59.4983 26.8146 59.4983 24.12C59.4983 18.9372 59.5108 13.7544 59.5014 8.57162C59.4952 5.05506 57.6506 3.17935 54.1899 3.17617C38.9538 3.16982 23.7146 3.16982 8.47851 3.17617C5.00223 3.17935 3.13569 5.04553 3.13569 8.53988C3.12943 34.5586 3.12943 60.5774 3.13569 86.5961C3.13569 90.1984 4.97091 92.0392 8.5568 92.0392C23.7428 92.0455 38.9288 92.0455 54.1116 92.0392C57.6787 92.0392 59.4858 90.1857 59.5046 86.5644C59.5077 85.9296 59.3229 85.2028 59.5703 84.6855C59.8647 84.0729 60.5224 83.2509 61.0329 83.2414C61.5527 83.2319 62.4798 84.0507 62.5518 84.5998C63.5446 91.9281 58.944 95.305 53.9331 95.2606C38.9069 95.1304 23.8775 95.2161 8.84806 95.213C3.08245 95.213 0.000782944 92.0614 0.000782944 86.1676C0.000782944 73.317 0.000782944 60.4663 0.000782944 47.6156Z" fill="white" fill-opacity="0.2"/>
<path d="M9.39508 77.6746C24.0706 77.6746 38.5426 77.6746 53.24 77.6746C53.24 75.2085 53.24 72.7996 53.24 70.3875C53.24 69.1719 53.074 67.9182 53.3152 66.7566C53.4467 66.1218 54.2829 65.6394 54.7996 65.0903C55.3195 65.6394 56.2716 66.1758 56.2904 66.7439C56.4219 70.9143 56.4 75.0911 56.3499 79.2647C56.3342 80.6262 55.3571 80.9436 54.1701 80.9404C48.2761 80.9277 42.3853 80.9436 36.4912 80.9436C27.2619 80.9436 18.0294 80.9404 8.80004 80.9309C6.65477 80.9277 6.25391 80.5183 6.25391 78.3347C6.25391 74.2659 6.26643 70.197 6.26017 66.1282C6.25704 64.9221 6.21633 63.5479 7.80414 63.5415C9.51096 63.5352 9.40135 64.9824 9.39821 66.2298C9.38882 69.978 9.39508 73.7263 9.39508 77.6746Z" fill="white" fill-opacity="0.2"/>
<path d="M31.1612 87.2756C29.2853 87.2756 27.4093 87.2629 25.5334 87.2819C24.4686 87.2914 23.5886 86.9455 23.5447 85.7679C23.4978 84.4888 24.3966 84.1016 25.5365 84.1048C29.3918 84.1143 33.2501 84.1175 37.1053 84.1048C38.1733 84.1016 39.0533 84.4412 39.094 85.6187C39.141 86.8979 38.2422 87.2914 37.1022 87.2851C35.1198 87.266 33.1405 87.2756 31.1612 87.2756Z" fill="white" fill-opacity="0.2"/>
<path d="M71.1865 74.5422C70.7073 74.0027 69.9056 73.498 69.9181 73.0156C69.9338 72.3967 70.4693 71.4795 71.0174 71.2414C73.2535 70.2607 75.5772 69.4863 77.8728 68.642C78.5556 68.3913 79.2508 67.9819 79.9336 67.9914C80.4941 68.0009 81.3178 68.404 81.5276 68.8642C81.7343 69.3181 81.4869 70.4733 81.1456 70.6193C77.9449 71.9809 74.6847 73.1902 71.1865 74.5422Z" fill="white" fill-opacity="0.2"/>
<path d="M72.0506 67.4834C71.5746 67.0042 70.8981 66.6328 70.823 66.1631C70.7353 65.614 71.0109 64.6143 71.4055 64.4397C73.4975 63.5035 75.6553 62.691 77.8444 62.0213C78.2516 61.8976 79.1347 62.4974 79.3853 62.983C79.5888 63.3797 79.3446 64.4683 79.0157 64.6207C76.7953 65.6426 74.5028 66.4995 72.0506 67.4834Z" fill="white" fill-opacity="0.2"/>
<path d="M73.3941 80.4929C72.9087 80.0391 72.2134 79.6931 72.1258 79.2266C72.0224 78.6839 72.2917 77.6651 72.6738 77.4969C74.8066 76.5511 77.0051 75.7322 79.2318 75.0499C79.6264 74.9293 80.5002 75.5513 80.7351 76.0369C80.9292 76.4368 80.6661 77.5032 80.3279 77.6587C78.1169 78.6743 75.8307 79.5217 73.3941 80.4929Z" fill="white" fill-opacity="0.2"/>
<path d="M93.9758 79.3281C93.5686 78.1855 93.1584 77.0429 92.7481 75.9004C91.9433 73.666 91.1509 71.4253 90.321 69.2005C89.9577 68.2261 89.2468 67.7247 88.2227 68.1372C87.2863 68.5149 87.1047 69.3211 87.3865 70.2478C87.5087 70.6509 87.6652 71.0444 87.8062 71.4443C88.7958 74.2214 89.7823 76.9953 90.7845 79.8041C90.4494 80.0041 90.2458 80.1755 90.0141 80.2612C83.7944 82.5685 77.5621 84.8473 71.3518 87.1864C70.2056 87.618 70.0208 86.9293 69.7389 86.1422C66.0372 75.8083 62.3229 65.4776 58.6243 55.1406C58.4677 54.7057 58.2297 54.1154 58.3925 53.7822C59.5168 51.5034 60.7382 49.2785 62.016 46.8696C63.0808 48.0915 64.1268 48.7707 63.4597 50.4687C62.3824 53.2141 63.5474 56.2514 65.9745 57.8002C68.3954 59.3458 71.5742 59.0348 73.6537 57.0512C75.7707 55.0326 76.2656 51.8811 74.8625 49.3515C73.4156 46.7427 70.4217 45.4033 67.6406 46.3872C66.3848 46.8316 65.7146 46.565 65.0883 45.5398C64.844 45.1367 64.5183 44.7845 64.227 44.4131C63.3219 43.2674 64.4963 42.566 64.8847 41.7662C65.0193 41.4901 65.9714 41.3663 66.4193 41.5345C70.1398 42.9214 73.8478 44.3433 77.5058 45.8858C78.2073 46.1809 78.9338 46.949 79.2063 47.6726C81.1981 52.957 83.0772 58.2826 84.9876 63.5987C85.3665 64.6524 85.9678 65.4776 87.1798 64.9984C88.3542 64.5318 88.3135 63.5543 87.922 62.472C85.83 56.7179 83.7975 50.9416 81.6679 45.2034C81.4236 44.5464 80.8066 43.8101 80.1834 43.553C75.3041 41.5408 70.381 39.6397 65.4703 37.7005C64.299 37.2372 63.4597 37.5799 62.8741 38.7066C62.4482 39.5255 61.9533 40.3062 61.493 41.0997C57.3434 38.732 54.4151 38.2369 51.3867 39.7445V43.2864C53.6134 41.7852 56.4884 41.6932 58.7527 43.1817C59.664 43.7784 59.9146 44.3369 59.307 45.3653C58.0731 47.4504 57.0208 49.6435 55.7775 51.7224C54.9757 53.0617 54.9194 54.2614 55.4612 55.7467C59.5168 66.8519 63.491 77.9855 67.4872 89.1129C68.2764 91.3091 68.6867 91.5313 70.8319 90.7442C78.0413 88.0941 85.2444 85.4344 92.4475 82.7716C94.552 81.9909 94.7556 81.5211 93.9758 79.3281ZM68.9122 52.3889C69.3412 51.8112 69.0092 50.656 69.0092 49.3674C69.9707 49.0215 71.0261 49.5325 71.8278 50.6211C72.6578 51.7509 72.6859 52.9982 71.903 54.1694C71.0887 55.3881 69.8987 55.8864 68.4956 55.4738C67.1427 55.0771 66.2877 54.1821 66.2815 53.0205C67.3055 52.8142 68.5207 52.9157 68.9122 52.3889Z" fill="white" fill-opacity="0.2"/>
<path d="M9.47417 56.7593C9.47417 46.9205 9.47417 37.0849 9.4773 27.2461C9.4773 27.116 9.48043 26.9859 9.4867 26.8494V19.0926H9.60884C9.60884 17.9342 9.60884 16.7567 9.60884 15.5824C24.2249 15.5824 38.7062 15.5824 53.3191 15.5824C53.3191 16.5377 53.3191 17.3756 53.3191 18.2135C53.3191 22.9742 53.3254 27.7349 53.3191 32.4924C53.316 33.5906 53.7074 34.438 54.8725 34.4507C56.0375 34.4633 56.4697 33.6286 56.4477 32.5242C56.4446 32.3655 56.4477 32.2068 56.4477 32.0481C56.4509 26.3892 56.4603 20.7303 56.4571 15.0714C56.454 12.634 56.1189 12.2912 53.7763 12.2912C38.8503 12.288 23.9242 12.288 8.99814 12.2912C6.69315 12.2912 6.34552 12.6276 6.34552 14.9255C6.33926 26.7732 6.33926 38.621 6.33926 50.4656C6.33926 52.8999 6.35492 55.3311 6.33612 57.7654C6.32673 58.9111 6.66809 59.8569 7.93333 59.8378C9.20484 59.8188 9.51175 58.8381 9.47104 57.7082C9.46477 57.394 9.47417 57.0766 9.47417 56.7593Z" fill="white" fill-opacity="0.2"/>
<path d="M9.9697 10.4219C11.2064 10.4219 12.2089 9.40588 12.2089 8.15259C12.2089 6.8993 11.2064 5.8833 9.9697 5.8833C8.733 5.8833 7.73047 6.8993 7.73047 8.15259C7.73047 9.40588 8.733 10.4219 9.9697 10.4219Z" fill="white" fill-opacity="0.2"/>
<path d="M16.6865 10.4219C17.9232 10.4219 18.9257 9.40588 18.9257 8.15259C18.9257 6.8993 17.9232 5.8833 16.6865 5.8833C15.4498 5.8833 14.4473 6.8993 14.4473 8.15259C14.4473 9.40588 15.4498 10.4219 16.6865 10.4219Z" fill="white" fill-opacity="0.2"/>
<path d="M54.9072 48.6692C56.1439 48.6692 57.1464 47.6532 57.1464 46.3999C57.1464 45.1466 56.1439 44.1306 54.9072 44.1306C53.6705 44.1306 52.668 45.1466 52.668 46.3999C52.668 47.6532 53.6705 48.6692 54.9072 48.6692Z" fill="white" fill-opacity="0.2"/>
<path d="M46.6918 47.5523C46.6918 41.6395 46.6918 35.7267 46.6918 29.8139C46.6918 27.7192 45.7397 26.7639 43.654 26.7639C39.733 26.7607 35.812 26.7607 31.891 26.767C31.3429 26.767 30.7949 26.8242 30.2437 26.84C28.6371 26.8908 27.6693 27.8652 27.6568 29.5124C27.638 31.7404 27.6693 33.9716 27.6443 36.1996C27.6098 39.4749 25.7777 41.338 22.5614 41.3761C20.626 41.4014 18.6874 41.3983 16.7519 41.3856C14.9167 41.3729 13.7674 40.5794 13.2036 38.9798C12.6838 37.504 13.1379 36.0345 14.4501 34.8951C16.5014 33.1146 18.5496 31.3278 20.5946 29.5409C21.2461 28.9728 21.8849 28.9284 22.2952 29.4394C22.6898 29.9281 22.5677 30.528 21.9444 31.0739C20.0434 32.7338 18.1362 34.3905 16.2321 36.0472C16.16 36.1107 16.0849 36.171 16.0128 36.2345C15.352 36.7804 14.7883 37.3866 15.1547 38.3387C15.5149 39.2686 16.326 39.2655 17.1434 39.2591C19.0319 39.2433 20.9204 39.2623 22.8088 39.2433C24.4812 39.2274 25.5272 38.1642 25.5429 36.4662C25.5617 34.1874 25.546 31.9118 25.5585 29.633C25.5742 26.6655 27.4846 24.7231 30.419 24.7199C34.9132 24.7104 39.4104 24.7104 43.9045 24.7231C46.8421 24.7326 48.7713 26.7353 48.7713 29.7314C48.7682 41.5823 48.7682 53.4302 48.7713 65.2812C48.7713 68.4169 46.8734 70.3815 43.7824 70.3846C35.1261 70.391 26.4699 70.391 17.8136 70.3878C14.9574 70.3878 12.9813 68.3883 12.9781 65.5001C12.9719 59.0288 12.9813 52.5605 12.9688 46.0892C12.9688 45.4036 13.1598 44.8895 13.8582 44.7085C14.5378 44.5308 15.0764 45.0513 15.0796 45.9209C15.0827 47.9807 15.0514 50.0405 15.0483 52.0972C15.042 56.5564 15.042 61.0156 15.0451 65.4748C15.0483 67.3187 16.0598 68.3407 17.9013 68.3407C26.5576 68.3439 35.2138 68.347 43.8701 68.3407C45.6928 68.3407 46.6918 67.306 46.6949 65.4398C46.6949 59.4731 46.6918 53.5127 46.6918 47.5523Z" fill="white" fill-opacity="0.2"/>
<path d="M34.4527 51.9539C36.3662 51.9539 38.2798 51.9539 40.1933 51.9539C41.0451 51.9539 41.5681 52.3443 41.5807 52.9824C41.5932 53.6236 41.0733 54.0489 40.234 54.0521C36.36 54.0585 32.486 54.0585 28.612 54.0521C27.8259 54.0521 27.3217 53.6172 27.3342 52.9919C27.3436 52.3729 27.8478 51.9666 28.6433 51.9634C30.5787 51.957 32.5173 51.9602 34.4527 51.9602C34.4527 51.9539 34.4527 51.9539 34.4527 51.9539Z" fill="white" fill-opacity="0.2"/>
<path d="M34.4178 48.5742C32.5043 48.5742 30.5939 48.5901 28.6804 48.5583C28.3234 48.552 27.8536 48.4631 27.65 48.2219C27.4308 47.9648 27.2899 47.3999 27.4277 47.1237C27.5811 46.8127 28.0697 46.508 28.4267 46.4921C29.6168 46.4318 30.8131 46.5111 32.0063 46.5143C34.709 46.5207 37.4086 46.5143 40.1113 46.5175C40.3024 46.5175 40.4966 46.5175 40.6845 46.5461C41.2294 46.6349 41.5614 46.9714 41.5676 47.5236C41.577 48.114 41.2388 48.5044 40.6594 48.5425C39.8984 48.5964 39.1311 48.571 38.3669 48.571C37.0485 48.5774 35.7331 48.5774 34.4178 48.5742Z" fill="white" fill-opacity="0.2"/>
<path d="M34.5101 57.4323C36.4236 57.4323 38.334 57.4291 40.2475 57.4323C41.0931 57.4355 41.5597 57.7846 41.5785 58.4193C41.5973 59.0794 41.1119 59.4793 40.2412 59.4793C36.3704 59.4857 32.4963 59.4793 28.6255 59.4857C28.0179 59.4857 27.5231 59.3397 27.3602 58.6732C27.1911 57.9845 27.7047 57.4418 28.5628 57.4387C30.5421 57.426 32.5277 57.4323 34.5101 57.4323Z" fill="white" fill-opacity="0.2"/>
<path d="M22.0755 48.5488C21.7185 48.5488 21.352 48.5901 21.0013 48.5393C20.4125 48.4504 20.1494 48.0187 20.1369 47.4568C20.1275 46.9204 20.4626 46.5585 20.9574 46.5141C21.6903 46.4474 22.4388 46.4379 23.1716 46.5109C23.6977 46.5617 24.0297 46.9458 23.989 47.5235C23.9514 48.0917 23.6727 48.4948 23.0745 48.5551C22.7426 48.5869 22.4075 48.5615 22.0724 48.5615C22.0755 48.5551 22.0755 48.552 22.0755 48.5488Z" fill="white" fill-opacity="0.2"/>
<path d="M22.1002 51.9669C22.4102 51.9669 22.7265 51.932 23.0303 51.9733C23.594 52.0494 23.9479 52.3795 23.9636 52.9794C23.9761 53.5824 23.6379 53.9665 23.0742 54.0204C22.4134 54.0839 21.7338 54.0839 21.073 54.0172C20.5186 53.9601 20.146 53.5856 20.1647 52.9889C20.1804 52.4081 20.528 52.0494 21.1011 51.9733C21.43 51.9352 21.7682 51.9701 22.1002 51.9669Z" fill="white" fill-opacity="0.2"/>
<path d="M22.0132 59.4569C21.6812 59.4569 21.3399 59.4982 21.0142 59.4474C20.4724 59.3649 20.1529 58.9967 20.1623 58.4508C20.1717 57.9145 20.4661 57.5051 21.0204 57.4638C21.7063 57.413 22.4015 57.4162 23.0874 57.4606C23.6386 57.4955 23.9487 57.8669 23.9612 58.4255C23.9737 59.019 23.6605 59.3903 23.0811 59.4601C22.7304 59.5045 22.3671 59.4696 22.0101 59.4696C22.0132 59.4633 22.0132 59.4601 22.0132 59.4569Z" fill="white" fill-opacity="0.2"/>
</svg>
