<svg width="38" height="46" viewBox="0 0 38 46" fill="none" xmlns="http://www.w3.org/2000/svg">
<path d="M33.5833 0.0833359H4.41667C2.125 0.0833359 0.270833 1.95834 0.270833 4.25L0.25 31.1875C0.25 32.625 0.979167 33.8958 2.08333 34.6458L19 45.9167L35.8958 34.6458C37 33.8958 37.7292 32.625 37.7292 31.1875L37.75 4.25C37.75 1.95834 35.875 0.0833359 33.5833 0.0833359ZM19 40.9167L4.41667 31.2083V4.25H33.5833V31.1875L19 40.9167ZM14.8125 25.4583L9.4375 20.0625L6.5 23L14.8333 31.3333L31.5 14.6667L28.5417 11.7083L14.8125 25.4583Z" fill="#006D64"/>
</svg>
