<svg width="88" height="84" viewBox="0 0 88 84" fill="none" xmlns="http://www.w3.org/2000/svg">
<path d="M53.2382 74.4182C53.2382 76.2983 53.2382 78.0497 53.2382 79.9847C54.4629 79.9847 55.6633 79.9506 56.8601 79.9941C57.9319 80.0339 58.6347 80.7791 58.6589 81.7891C58.6832 82.7689 57.9692 83.5652 56.944 83.6843C56.6979 83.7127 56.4481 83.7014 56.1983 83.7014C52.4385 83.707 48.6805 83.7146 44.9206 83.7146C40.5083 83.7146 36.0979 83.707 31.6856 83.7014C31.4376 83.7014 31.186 83.7089 30.9418 83.6711C29.9911 83.5236 29.3182 82.7046 29.3536 81.7607C29.389 80.7999 30.0936 80.0395 31.0816 79.9923C32.105 79.9431 33.1321 79.9544 34.1573 79.9696C34.6234 79.9752 34.8321 79.8163 34.8266 79.317C34.8079 77.7433 34.8191 76.1697 34.8191 74.4825C34.4388 74.4598 34.1126 74.422 33.7864 74.422C25.0886 74.4144 16.3888 74.4031 7.69101 74.4087C4.86132 74.4106 2.64492 73.2833 1.10332 70.849C0.322267 69.6158 0.0202851 68.254 0.0202851 66.8014C0.018421 59.3623 0.00537236 51.9233 0.00537236 44.4843C0.00537236 43.1111 0.745416 42.2638 1.88997 42.2732C2.98791 42.2808 3.67763 43.1054 3.68136 44.4578C3.68881 47.8624 3.71677 51.267 3.66271 54.6697C3.6478 55.6041 3.95165 55.8083 4.82404 55.8064C26.1362 55.7837 47.4464 55.7875 68.7586 55.7875C73.5735 55.7875 78.3884 55.7705 83.2034 55.8046C84.0199 55.8102 84.3274 55.6324 84.3274 54.717C84.3032 39.1448 84.3181 23.5745 84.3162 8.00227C84.3162 5.20105 82.8697 3.74275 80.1239 3.74086C56.0772 3.73897 32.0304 3.73897 7.98367 3.74086C5.09433 3.74086 3.70559 5.14052 3.7 8.09495C3.68881 14.5561 3.69813 21.0191 3.69813 27.4803C3.69813 28.0156 3.70186 28.5527 3.67949 29.088C3.62543 30.3288 2.88353 31.0929 1.77626 31.0646C0.723047 31.0381 0.038926 30.2739 0.0146928 29.0407C-0.00954035 27.8434 0.00350827 26.6462 0.00350827 25.447C0.00723645 19.6157 0.0146928 13.7844 0.0202851 7.95309C0.0240132 3.15451 3.09976 0.00905375 7.82336 0.00905375C28.7925 0.00527087 49.7635 0.00716231 70.7326 0.00905375C73.9631 0.00905375 77.1954 -0.0136435 80.4259 0.0128366C84.8773 0.0506654 87.9829 3.21315 87.9866 7.72233C87.996 24.0814 87.9904 40.4423 87.9904 56.8013C87.9904 60.0489 88.0071 63.2946 87.9848 66.5422C87.9512 71.2708 84.9295 74.3804 80.2898 74.3974C71.6852 74.4276 63.0787 74.4144 54.474 74.4201C54.1031 74.4182 53.7321 74.4182 53.2382 74.4182ZM84.2473 59.5345C83.839 59.5345 83.5035 59.5345 83.1698 59.5345C62.0497 59.5364 40.9296 59.5364 19.8076 59.5382C14.7447 59.5382 9.68186 59.5364 4.61899 59.5345C4.15856 59.5345 3.67017 59.421 3.68136 60.1908C3.71491 62.5229 3.65339 64.857 3.73355 67.1853C3.79879 69.0862 5.29379 70.5332 7.1672 70.6618C7.69287 70.6977 8.22228 70.6769 8.75168 70.6769C17.8522 70.675 26.9526 70.6731 36.0531 70.6731C50.8372 70.6731 65.6213 70.6788 80.4054 70.6731C82.7597 70.6731 84.3051 69.0938 84.32 66.6954C84.333 64.647 84.3181 62.5986 84.3107 60.5502C84.3107 60.2456 84.2734 59.9392 84.2473 59.5345ZM49.4373 79.8901C49.4373 78.0611 49.4373 76.2926 49.4373 74.4693C45.7911 74.4693 42.2139 74.4693 38.523 74.4693C38.523 76.0656 38.5547 77.5977 38.5081 79.126C38.4876 79.8107 38.7411 79.9752 39.3675 79.9714C42.4339 79.9469 45.5022 79.9639 48.5705 79.9601C48.8408 79.9601 49.1111 79.9185 49.4373 79.8901Z" fill="white" fill-opacity="0.2"/>
<path d="M28.8666 9.30913C39.7082 8.8741 49.0603 17.8395 49.504 29.0897C49.9439 40.2473 41.151 49.7839 30.0093 50.2322C19.0913 50.6729 9.61059 41.7415 9.19676 30.6294C8.76988 19.1559 17.4323 9.76686 28.8666 9.30913ZM35.3257 30.0033C39.9729 31.6923 42.262 34.9891 42.2191 40.0279C46.7954 34.6941 47.7573 24.3725 40.5265 17.4726C33.7487 11.0039 22.6741 11.7302 16.6699 19.0708C11.7673 25.0648 11.6443 36.2639 16.4798 39.9125C16.4294 34.9532 18.7428 31.6772 23.3918 29.9919C22.2323 28.1119 21.8278 26.0975 22.1018 23.981C22.5269 20.6918 24.143 18.2083 27.2971 17.0962C31.0271 15.7816 35.0219 18.1743 36.2615 22.3298C37.0481 24.9683 36.7294 27.5009 35.3257 30.0033ZM29.3811 33.4797C29.3811 33.4779 29.3811 33.4779 29.3811 33.476C28.1695 33.476 26.9578 33.4533 25.748 33.4797C22.5436 33.5535 20.2601 35.8875 20.2061 39.1351C20.1856 40.3324 20.2322 41.5316 20.1762 42.727C20.1446 43.4173 20.3794 43.8297 20.9685 44.1588C26.6055 47.3194 32.2201 47.274 37.8329 44.0964C38.3232 43.8183 38.5394 43.4798 38.5189 42.8934C38.4779 41.6659 38.517 40.4345 38.5021 39.207C38.4611 35.9083 36.1795 33.5592 32.9229 33.4816C31.7411 33.4571 30.5611 33.4797 29.3811 33.4797ZM32.9919 25.1045C32.9788 23.7654 32.6004 22.5605 31.6795 21.5694C30.3094 20.0979 28.2533 20.1376 26.9242 21.6545C25.2466 23.5686 25.2838 26.8162 27.0044 28.6755C28.3279 30.1054 30.397 30.0998 31.7019 28.6509C32.6041 27.6485 32.9937 26.4493 32.9919 25.1045Z" fill="white" fill-opacity="0.2"/>
<path d="M67.8089 20.4612C65.4191 20.4612 63.0294 20.4763 60.6396 20.4574C57.4278 20.4328 55.0268 18.0515 55.0157 14.9118C55.0045 11.7361 57.4371 9.32077 60.6862 9.30942C65.3725 9.29429 70.0589 9.27916 74.747 9.30186C77.737 9.31699 79.8807 10.9341 80.4978 13.5556C81.3012 16.9659 78.9878 20.2531 75.5355 20.4158C72.965 20.5368 70.3851 20.4404 67.8089 20.4404C67.8089 20.448 67.8089 20.4555 67.8089 20.4612ZM67.8611 13.0374C67.8611 13.0412 67.8611 13.0431 67.8611 13.0469C65.531 13.0469 63.2027 13.0393 60.8726 13.0506C59.482 13.0582 58.6786 13.7675 58.6935 14.9364C58.7084 16.0429 59.5417 16.7408 60.8577 16.7483C61.7282 16.7521 62.5969 16.7578 63.4674 16.7578C67.2571 16.7578 71.045 16.7654 74.8346 16.7502C76.0687 16.7446 76.8031 16.1715 76.9541 15.1898C77.1368 14.0039 76.2942 13.0658 74.9428 13.0469C72.5828 13.0147 70.221 13.0374 67.8611 13.0374Z" fill="white" fill-opacity="0.2"/>
<path d="M67.8789 26.0504C71.4766 26.0504 75.0762 26.0542 78.6739 26.0466C79.5835 26.0447 80.2453 26.4344 80.551 27.3006C80.8306 28.0913 80.6349 28.8327 79.962 29.3188C79.6078 29.5741 79.1138 29.7557 78.6813 29.7576C71.4543 29.7803 64.2253 29.7765 56.9964 29.7595C55.7549 29.7557 54.9999 28.9878 55.026 27.8662C55.054 26.7408 55.8015 26.0655 57.0803 26.0618C60.678 26.0523 64.2775 26.058 67.8752 26.058C67.8789 26.0561 67.8789 26.0523 67.8789 26.0504Z" fill="white" fill-opacity="0.2"/>
<path d="M67.8653 44.6337C64.2676 44.6337 60.6699 44.6413 57.0722 44.6299C55.8083 44.6262 55.031 43.9112 55.0254 42.8122C55.0198 41.6754 55.7543 40.9548 57.0163 40.9434C59.4657 40.9207 61.917 40.9321 64.3664 40.9302C69.0807 40.9283 73.7949 40.9359 78.5111 40.9226C79.3947 40.9207 80.103 41.1742 80.4945 42.0254C81.0798 43.2983 80.1645 44.6299 78.6602 44.6394C75.0625 44.6602 71.4648 44.647 67.8653 44.647C67.8653 44.6413 67.8653 44.6375 67.8653 44.6337Z" fill="white" fill-opacity="0.2"/>
<path d="M66.0093 48.3634C68.9583 48.3634 71.9054 48.3558 74.8544 48.3672C76.1574 48.371 76.9776 49.1029 76.985 50.2189C76.9906 51.3519 76.1909 52.0706 74.873 52.0744C69.0067 52.0858 63.1423 52.0896 57.276 52.0877C56.0159 52.0877 55.3299 51.6507 55.082 50.7447C54.7241 49.4434 55.5983 48.3709 57.071 48.3634C60.0498 48.3464 63.0305 48.3577 66.0093 48.3577C66.0093 48.3577 66.0093 48.3615 66.0093 48.3634Z" fill="white" fill-opacity="0.2"/>
<path d="M77.0026 37.2154C76.4136 37.2154 75.8208 37.2456 75.2336 37.2097C74.0667 37.1359 73.3229 36.3699 73.3341 35.3051C73.3453 34.2875 74.0835 33.5215 75.2094 33.4799C76.4173 33.4345 77.6308 33.4382 78.8406 33.4893C79.9274 33.5366 80.6712 34.3594 80.6506 35.3788C80.6301 36.3813 79.933 37.1151 78.8649 37.1927C78.2478 37.2362 77.6234 37.2002 77.0026 37.2002C77.0026 37.2059 77.0026 37.2097 77.0026 37.2154Z" fill="white" fill-opacity="0.2"/>
<path d="M58.6714 37.2116C58.0507 37.2116 57.4262 37.2475 56.8092 37.2021C55.7019 37.1227 55.0029 36.3548 55.0178 35.2994C55.0327 34.3215 55.756 33.5271 56.8017 33.4817C58.0414 33.4287 59.2866 33.4325 60.5262 33.4836C61.5831 33.5271 62.3567 34.3953 62.3344 35.3902C62.312 36.3907 61.5142 37.1662 60.4386 37.2059C59.8514 37.2305 59.2605 37.2135 58.6714 37.2116Z" fill="white" fill-opacity="0.2"/>
<path d="M69.663 35.3259C69.6704 36.334 68.8558 37.17 67.8436 37.1946C66.8519 37.2173 66.0093 36.3794 65.9982 35.3599C65.987 34.3688 66.8482 33.4817 67.8194 33.4817C68.8241 33.4836 69.6555 34.3139 69.663 35.3259Z" fill="white" fill-opacity="0.2"/>
<path d="M1.79628 34.817C2.79729 34.7981 3.64918 35.6057 3.69019 36.612C3.72934 37.6182 2.92405 38.4845 1.91931 38.5166C0.912698 38.5488 0.0757224 37.7487 0.0421688 36.7217C0.00675111 35.6889 0.791532 34.8359 1.79628 34.817Z" fill="white" fill-opacity="0.2"/>
<path d="M44.0002 66.9467C43.3477 66.9467 42.6934 66.9826 42.0447 66.9372C41.0661 66.8692 40.3726 66.1051 40.354 65.1405C40.3335 64.1533 40.9673 63.3325 41.9627 63.2795C43.3254 63.2057 44.6955 63.2095 46.0581 63.2795C47.0293 63.3287 47.678 64.176 47.6538 65.1538C47.6295 66.1278 46.9417 66.8786 45.9574 66.9391C45.3069 66.9789 44.6526 66.9467 44.0002 66.9467Z" fill="white" fill-opacity="0.2"/>
</svg>
