<svg width="81" height="98" viewBox="0 0 81 98" fill="none" xmlns="http://www.w3.org/2000/svg">
<path d="M70.3986 58.1832C71.7424 58.3583 72.923 58.394 74.0363 58.6826C77.5461 59.5937 79.9617 62.7193 79.9777 66.3961C80.0128 73.9604 80.0321 81.5248 79.9745 89.0892C79.9393 93.8165 76.4999 97.2372 71.8288 97.2599C64.4701 97.2988 57.1147 97.2955 49.756 97.2599C46.1279 97.2437 43.5396 95.4571 42.1766 92.0786C41.7447 91.0086 41.236 90.7655 40.1994 90.7687C29.6957 90.8044 19.1952 90.8076 8.69155 90.7849C3.28135 90.772 0.00834825 87.4453 0.00834825 82.0079C-0.00124998 61.9606 -0.0140476 41.9132 0.0435418 21.8691C0.0467412 21.0163 0.513855 19.9658 1.11215 19.3498C7.01506 13.2639 12.9692 7.2267 18.9873 1.25432C19.6623 0.586396 20.8109 0.0611378 21.742 0.0578955C35.1763 -0.0166782 48.6138 -0.00370889 62.0482 0.0125028C66.9784 0.0189875 70.373 3.47532 70.3794 8.49445C70.3986 24.4889 70.3922 40.4801 70.3986 56.4745C70.3986 57.0095 70.3986 57.5445 70.3986 58.1832ZM67.18 58.3616C67.18 57.5802 67.18 56.9998 67.18 56.4194C67.1832 40.6973 67.1832 24.9785 67.1928 9.2564C67.196 5.04461 65.4619 3.25484 61.2771 3.2516C48.857 3.24187 36.4337 3.24511 24.0135 3.2516C23.5048 3.2516 22.9961 3.30672 22.3978 3.33914C22.3978 8.16698 22.417 12.81 22.3914 17.4498C22.3754 20.7181 20.4334 22.6732 17.1924 22.6926C13.1931 22.7186 9.19706 22.6991 5.19779 22.6991C4.58031 22.6991 3.96282 22.6991 3.20136 22.6991C3.20136 23.4773 3.20136 24.009 3.20136 24.5375C3.20136 43.6608 3.19816 62.7874 3.20456 81.9107C3.20456 85.6912 5.05702 87.5393 8.83553 87.5426C17.5795 87.5491 26.3203 87.5458 35.0643 87.5458C37.1791 87.5458 39.2971 87.5458 41.5975 87.5458C41.5975 86.7774 41.5975 86.197 41.5975 85.6166C41.5975 79.5664 41.5943 73.5163 41.5975 67.4628C41.6007 61.578 44.8385 58.3259 50.6039 58.3486C56.0365 58.381 61.4723 58.3616 67.18 58.3616ZM44.8001 77.8286C44.8001 81.4989 44.7713 85.1692 44.8097 88.8395C44.8417 92.0397 46.7774 94.0143 49.8968 94.024C57.1403 94.0467 64.3837 94.0467 71.6272 94.024C74.8426 94.0143 76.775 92.03 76.7846 88.7455C76.8038 81.46 76.8038 74.1712 76.7846 66.8857C76.775 63.5979 74.8714 61.6396 71.6144 61.6234C64.3709 61.5909 57.1275 61.5974 49.884 61.6298C46.7454 61.6428 44.8449 63.6077 44.8161 66.8176C44.7809 70.4879 44.8033 74.1582 44.8001 77.8286ZM19.1952 6.60417C14.9752 10.8192 10.6048 15.1899 6.33999 19.4535C9.84654 19.4535 13.6218 19.4665 17.4004 19.4471C18.5521 19.4406 19.1824 18.7921 19.1888 17.6249C19.2048 13.7957 19.1952 9.96972 19.1952 6.60417Z" fill="white" fill-opacity="0.2"/>
<path d="M60.7277 42.2893C60.7277 43.3106 60.7277 44.2184 60.7277 45.2656C43.7452 45.2656 26.7947 45.2656 9.72266 45.2656C9.72266 44.3222 9.72266 43.3787 9.72266 42.2893C26.6475 42.2893 43.598 42.2893 60.7277 42.2893Z" fill="white" fill-opacity="0.2"/>
<path d="M60.7341 19.5898C60.7341 20.624 60.7341 21.5318 60.7341 22.5757C50.1377 22.5757 39.586 22.5757 28.916 22.5757C28.916 21.6193 28.916 20.6759 28.916 19.5898C39.4549 19.5898 50.0065 19.5898 60.7341 19.5898Z" fill="white" fill-opacity="0.2"/>
<path d="M9.6582 38.7876C9.6582 37.7468 9.6582 36.8422 9.6582 35.7981C20.261 35.7981 30.8127 35.7981 41.4827 35.7981C41.4827 36.7643 41.4827 37.7046 41.4827 38.7876C30.9374 38.7876 20.3858 38.7876 9.6582 38.7876Z" fill="white" fill-opacity="0.2"/>
<path d="M41.5399 55.2522C41.5399 56.3027 41.5399 57.2073 41.5399 58.2449C30.9339 58.2449 20.379 58.2449 9.70898 58.2449C9.70898 57.2754 9.70898 56.3319 9.70898 55.2522C20.2638 55.2522 30.8187 55.2522 41.5399 55.2522Z" fill="white" fill-opacity="0.2"/>
<path d="M9.59961 65C9.59961 63.9754 9.59961 63.0707 9.59961 62.0234C19.121 62.0234 28.6073 62.0234 38.2151 62.0234C38.2151 62.9702 38.2151 63.9105 38.2151 65C28.7544 65 19.2682 65 9.59961 65Z" fill="white" fill-opacity="0.2"/>
<path d="M38.34 68.2214C38.34 69.259 38.34 70.1637 38.34 71.2078C28.8057 71.2078 19.3195 71.2078 9.71484 71.2078C9.71484 70.248 9.71484 69.3077 9.71484 68.2214C19.1851 68.2214 28.6713 68.2214 38.34 68.2214Z" fill="white" fill-opacity="0.2"/>
<path d="M60.7324 29.3167C60.7324 30.351 60.7324 31.2557 60.7324 32.303C52.2668 32.303 43.8459 32.303 35.3066 32.303C35.3066 31.3432 35.3066 30.4029 35.3066 29.3167C43.7211 29.3167 52.1388 29.3167 60.7324 29.3167Z" fill="white" fill-opacity="0.2"/>
<path d="M60.7323 13.105C60.7323 14.1393 60.7323 15.0439 60.7323 16.0879C53.3449 16.0879 45.9894 16.0879 38.5156 16.0879C38.5156 15.1314 38.5156 14.1911 38.5156 13.105C45.8455 13.105 53.2009 13.105 60.7323 13.105Z" fill="white" fill-opacity="0.2"/>
<path d="M9.66016 32.2964C9.66016 31.2718 9.66016 30.3672 9.66016 29.3167C17.0476 29.3167 24.403 29.3167 31.8737 29.3167C31.8737 30.2634 31.8737 31.207 31.8737 32.2964C24.547 32.2964 17.1916 32.2964 9.66016 32.2964Z" fill="white" fill-opacity="0.2"/>
<path d="M31.9392 48.7705C31.9392 49.8048 31.9392 50.7094 31.9392 51.7534C24.5422 51.7534 17.1867 51.7534 9.71289 51.7534C9.71289 50.7969 9.71289 49.8567 9.71289 48.7705C17.0555 48.7705 24.411 48.7705 31.9392 48.7705Z" fill="white" fill-opacity="0.2"/>
<path d="M44.8555 38.7842C44.8555 37.7563 44.8555 36.8517 44.8555 35.8044C50.1121 35.8044 55.3335 35.8044 60.6733 35.8044C60.6733 36.7545 60.6733 37.6947 60.6733 38.7842C55.4807 38.7842 50.2561 38.7842 44.8555 38.7842Z" fill="white" fill-opacity="0.2"/>
<path d="M60.6912 51.8057C56.436 51.8057 52.3216 51.8057 48.1016 51.8057C48.1016 50.7809 48.1016 49.8373 48.1016 48.7639C52.2704 48.7639 56.4232 48.7639 60.6912 48.7639C60.6912 49.7432 60.6912 50.6837 60.6912 51.8057Z" fill="white" fill-opacity="0.2"/>
<path d="M9.66016 77.7021C9.66016 76.6419 9.66016 75.7372 9.66016 74.7029C13.8738 74.7029 18.0266 74.7029 22.2947 74.7029C22.2947 75.6886 22.2947 76.6289 22.2947 77.7021C18.129 77.7021 13.973 77.7021 9.66016 77.7021Z" fill="white" fill-opacity="0.2"/>
<path d="M44.698 51.7957C41.4922 51.7957 38.4399 51.7957 35.2949 51.7957C35.2949 50.7613 35.2949 49.8211 35.2949 48.7576C38.4239 48.7576 41.5114 48.7576 44.698 48.7576C44.698 49.7659 44.698 50.7062 44.698 51.7957Z" fill="white" fill-opacity="0.2"/>
<path d="M35.0992 13.1179C35.0992 14.1554 35.0992 15.0956 35.0992 16.1299C33.0164 16.1299 31.0328 16.1299 28.918 16.1299C28.918 15.1508 28.918 14.217 28.918 13.1179C30.8952 13.1179 32.9204 13.1179 35.0992 13.1179Z" fill="white" fill-opacity="0.2"/>
<path d="M32.0957 77.6763C32.0957 76.6387 32.0957 75.6983 32.0957 74.6672C34.1785 74.6672 36.1622 74.6672 38.2706 74.6672C38.2706 75.6432 38.2706 76.5803 38.2706 77.6763C36.2934 77.6763 34.2713 77.6763 32.0957 77.6763Z" fill="white" fill-opacity="0.2"/>
<path d="M28.7971 74.7355C28.7971 75.3969 28.8067 75.9741 28.7939 76.5512C28.7843 76.9111 28.7395 77.2742 28.7043 77.7217C27.6965 77.7217 26.7719 77.7217 25.8536 77.7217C25.0602 74.6512 25.3673 74.3107 28.7971 74.7355Z" fill="white" fill-opacity="0.2"/>
<path d="M55.9951 74.6672C55.9951 73.085 55.9791 71.587 55.9983 70.0923C56.0335 67.0445 57.9788 64.9013 60.7238 64.8657C63.5265 64.83 65.5485 67.0056 65.5837 70.1247C65.5997 71.5741 65.5869 73.0266 65.5869 74.6219C66.2716 74.5797 66.8315 74.5278 67.3914 74.5116C69.4006 74.4468 70.9171 75.3384 71.8226 77.1249C72.728 78.9115 72.6768 80.8017 71.3267 82.2802C68.8695 84.9714 66.3164 87.5879 63.6385 90.0521C61.8436 91.7025 59.2809 91.4334 57.3997 89.6144C55.1249 87.4161 52.9109 85.153 50.7257 82.8671C49.1004 81.1649 48.7773 79.1319 49.6891 77.2125C50.5849 75.3287 52.4438 74.3398 54.7218 74.544C55.0865 74.5667 55.448 74.6089 55.9951 74.6672ZM62.3907 73.9539C62.3875 73.9539 62.3843 73.9539 62.3779 73.9539C62.3779 72.7121 62.3587 71.4703 62.3843 70.2285C62.4035 69.1261 62.074 68.202 60.8806 68.1566C59.6009 68.108 59.1785 69.0159 59.1881 70.209C59.2041 72.2614 59.2425 74.3138 59.1689 76.363C59.1273 77.5367 59.7224 79.0022 58.3147 79.7383C56.8302 80.5132 56.2351 78.9342 55.2305 78.3732C54.6194 78.0328 53.5316 77.8966 53.0037 78.2273C52.0823 78.8045 52.2742 79.8323 53.0165 80.5942C55.1857 82.825 57.3357 85.0784 59.6137 87.1924C60.0456 87.5944 61.3413 87.7436 61.6965 87.4096C64.16 85.1076 66.5212 82.6855 68.8023 80.1954C69.1063 79.8647 69.0295 78.665 68.6968 78.3667C68.2648 77.9809 67.3882 77.9906 66.7195 78.0458C66.3836 78.0749 66.1276 78.665 65.7629 78.8531C65.011 79.2357 64.1504 79.8744 63.4369 79.7577C62.2596 79.5632 62.3875 78.3343 62.3939 77.3551C62.3939 76.2203 62.3907 75.0855 62.3907 73.9539Z" fill="white" fill-opacity="0.2"/>
</svg>
